<svg id="Livello_1" data-name="Livello 1" xmlns="http://www.w3.org/2000/svg" viewBox="0 0 522.39 185.16"><defs><style>.cls-1{fill:#f2ed94;}.cls-2{fill:#7bbb58;}.cls-3{fill:#5e5925;}.cls-4{fill:#6da538;}.cls-5{fill:#b0aea3;}</style></defs><title>Logo_cascina_biblioteca</title><path class="cls-1" d="M159.17,86.32c0-27.4-24.26-71.52-52.35-64.69C76.39,29,60.9,58.92,54.47,86.31c-6.11,26,21.93,48.43,50.12,49.57.24,14.83,3.6,40.35,3.6,40.35H115c-2.13-19.47-2.05-32.59-1.48-40.72,25.73-3.14,45.61-24,45.61-49.19" transform="translate(-26.31 -20.92)"/><path class="cls-2" d="M190.9,33.47a31.73,31.73,0,0,0-9.25,1.32c-15.82,4.8-24.72,11.81-29.54,21.67,4.47,10.16,7.06,20.9,7.06,29.86A47.39,47.39,0,0,1,152.82,110a52.17,52.17,0,0,0,36.09,25.74c.55,8.16.6,21.2-1.5,40.46h6.85s3.23-24.57,3.58-39.5q.72,0,1.44,0c28.92,0,49.9-22.22,49.9-49.62,0-24.47-31.78-53.67-58.28-53.67" transform="translate(-26.31 -20.92)"/><path class="cls-3" d="M157.91,176.23V155.77H144.1v20.46H26.53l7.1,2.74h88.08c34.24,0,72.55-2.74,72.55-2.74Z" transform="translate(-26.31 -20.92)"/><path class="cls-4" d="M152.11,56.46c-4,8.16-5.18,18.27-5.18,30.69A47.37,47.37,0,0,0,152.82,110a47.39,47.39,0,0,0,6.35-23.71c0-9-2.59-19.7-7.06-29.86" transform="translate(-26.31 -20.92)"/><path class="cls-3" d="M234.14,153.93v5.83h5.6c2.67,0,4.37-.86,4.37-2.91v-.08c0-1.81-1.42-2.84-4-2.84Zm0,10.88v6.07h7.21c2.68,0,4.29-.95,4.29-3v-.08c0-1.85-1.37-3-4.49-3Zm7.21,11.39H228.23V148.61H241c3.15,0,5.63.87,7.21,2.44a6.35,6.35,0,0,1,1.89,4.69v.08a6.41,6.41,0,0,1-3.63,6c3.19,1.22,5.17,3.08,5.17,6.78v.08c0,5-4.1,7.57-10.33,7.57" transform="translate(-26.31 -20.92)"/><rect class="cls-3" x="238.53" y="127.69" width="6.07" height="27.58"/><path class="cls-3" d="M291.6,153.93v5.83h5.6c2.68,0,4.37-.86,4.37-2.91v-.08c0-1.81-1.42-2.84-4-2.84Zm0,10.88v6.07h7.21c2.68,0,4.3-.95,4.3-3v-.08c0-1.85-1.38-3-4.5-3Zm7.21,11.39H285.69V148.61H298.5c3.15,0,5.63.87,7.21,2.44a6.35,6.35,0,0,1,1.89,4.69v.08a6.41,6.41,0,0,1-3.63,6c3.2,1.22,5.17,3.08,5.17,6.78v.08c0,5-4.1,7.57-10.33,7.57" transform="translate(-26.31 -20.92)"/><polygon class="cls-3" points="315.54 155.28 295.72 155.28 295.72 127.69 301.79 127.69 301.79 149.76 315.54 149.76 315.54 155.28"/><rect class="cls-3" x="328.27" y="127.69" width="6.07" height="27.58"/><path class="cls-3" d="M388.83,153.73a8.26,8.26,0,0,0-8.28,8.59v.08a8.38,8.38,0,0,0,8.36,8.67,8.25,8.25,0,0,0,8.27-8.59v-.08a8.38,8.38,0,0,0-8.35-8.67m0,22.94c-8.51,0-14.62-6.34-14.62-14.19v-.08c0-7.84,6.18-14.26,14.7-14.26s14.62,6.34,14.62,14.18v.08c0,7.85-6.19,14.27-14.7,14.27" transform="translate(-26.31 -20.92)"/><polygon class="cls-3" points="401.81 155.28 395.75 155.28 395.75 133.29 387.35 133.29 387.35 127.69 410.21 127.69 410.21 133.29 401.81 133.29 401.81 155.28"/><polygon class="cls-3" points="443.75 155.28 422.74 155.28 422.74 127.69 443.55 127.69 443.55 133.09 428.77 133.09 428.77 138.68 441.78 138.68 441.78 144.08 428.77 144.08 428.77 149.88 443.75 149.88 443.75 155.28"/><path class="cls-3" d="M496.26,176.67a13.93,13.93,0,0,1-14.15-14.19v-.08a14,14,0,0,1,14.39-14.26c5.2,0,8.31,1.73,10.88,4.25l-3.87,4.46c-2.12-1.93-4.29-3.12-7.05-3.12-4.65,0-8,3.87-8,8.59v.08c0,4.73,3.27,8.67,8,8.67,3.15,0,5.08-1.26,7.25-3.23l3.86,3.9a14.08,14.08,0,0,1-11.31,4.93" transform="translate(-26.31 -20.92)"/><path class="cls-3" d="M532.48,155.7l-3.66,9h7.33Zm14.7,20.5h-6.34L538.31,170H526.65l-2.52,6.19h-6.19l11.82-27.79h5.6Z" transform="translate(-26.31 -20.92)"/><path class="cls-3" d="M327.4,135.15A13.93,13.93,0,0,1,313.25,121v-.08a14,14,0,0,1,14.39-14.27,14.23,14.23,0,0,1,10.87,4.26l-3.86,4.45c-2.13-1.93-4.3-3.11-7-3.11-4.66,0-8,3.86-8,8.59v.08c0,4.73,3.27,8.67,8,8.67,3.15,0,5.08-1.26,7.25-3.23l3.86,3.9a14.09,14.09,0,0,1-11.31,4.93" transform="translate(-26.31 -20.92)"/><path class="cls-3" d="M363.62,114.18,360,123.13h7.33Zm14.7,20.49H372l-2.52-6.18H357.79l-2.53,6.18h-6.18l11.82-27.78h5.59Z" transform="translate(-26.31 -20.92)"/><path class="cls-3" d="M399.88,135.07a17.55,17.55,0,0,1-11.71-4.42l3.59-4.29a12.64,12.64,0,0,0,8.23,3.35c2.49,0,4-1,4-2.6V127c0-1.54-.94-2.33-5.55-3.51-5.56-1.42-9.15-3-9.15-8.43V115c0-5,4-8.32,9.66-8.32a16,16,0,0,1,10.25,3.51L406,114.77a13,13,0,0,0-7.17-2.72c-2.32,0-3.55,1.07-3.55,2.41v.08c0,1.81,1.19,2.4,5.95,3.62,5.6,1.46,8.75,3.47,8.75,8.28v.07c0,5.48-4.17,8.56-10.12,8.56" transform="translate(-26.31 -20.92)"/><path class="cls-3" d="M436.09,135.15A13.93,13.93,0,0,1,422,121v-.08a14,14,0,0,1,14.38-14.27,14.25,14.25,0,0,1,10.88,4.26l-3.86,4.45a10.2,10.2,0,0,0-7.06-3.11c-4.65,0-8,3.86-8,8.59v.08c0,4.73,3.27,8.67,8,8.67,3.15,0,5.09-1.26,7.25-3.23l3.87,3.9a14.1,14.1,0,0,1-11.32,4.93" transform="translate(-26.31 -20.92)"/><rect class="cls-3" x="434.11" y="86.17" width="6.07" height="27.58"/><polygon class="cls-3" points="479.47 113.75 474.31 113.75 460.94 96.22 460.94 113.75 454.95 113.75 454.95 86.17 460.55 86.17 473.48 103.15 473.48 86.17 479.47 86.17 479.47 113.75"/><path class="cls-3" d="M532.46,114.18l-3.67,8.95h7.33Zm14.69,20.49h-6.34l-2.52-6.18H526.62l-2.52,6.18h-6.19l11.83-27.78h5.59Z" transform="translate(-26.31 -20.92)"/><path class="cls-5" d="M26.31,196.7v0A6.51,6.51,0,0,1,32.85,190a6.72,6.72,0,0,1,5,2.05l-1,1.07a5.63,5.63,0,0,0-4.06-1.77,5.07,5.07,0,0,0-5,5.3v0a5.1,5.1,0,0,0,5,5.34A5.62,5.62,0,0,0,37,200.13l1,.94a6.72,6.72,0,0,1-5.17,2.28,6.45,6.45,0,0,1-6.48-6.65" transform="translate(-26.31 -20.92)"/><path class="cls-5" d="M43.15,198.4v0a5,5,0,0,1,10,0v0a5,5,0,0,1-5,5,4.9,4.9,0,0,1-5-4.95m8.5,0v0a3.61,3.61,0,0,0-3.54-3.73,3.53,3.53,0,0,0-3.5,3.69v0a3.58,3.58,0,0,0,3.53,3.71,3.52,3.52,0,0,0,3.51-3.67" transform="translate(-26.31 -20.92)"/><path class="cls-5" d="M58.75,198.4v0a5,5,0,0,1,10,0v0a5,5,0,0,1-5,5,4.89,4.89,0,0,1-5-4.95m8.49,0v0a3.61,3.61,0,0,0-3.54-3.73,3.52,3.52,0,0,0-3.49,3.69v0a3.58,3.58,0,0,0,3.52,3.71,3.52,3.52,0,0,0,3.51-3.67" transform="translate(-26.31 -20.92)"/><path class="cls-5" d="M74.93,193.58h1.42v1.91A4.3,4.3,0,0,1,80,193.37a4.66,4.66,0,0,1,4.56,4.95v0a4.67,4.67,0,0,1-4.56,5,4.32,4.32,0,0,1-3.66-2v4.78H74.93Zm8.18,4.8v0a3.44,3.44,0,0,0-3.36-3.69,3.55,3.55,0,0,0-3.45,3.67v0a3.55,3.55,0,0,0,3.45,3.69,3.36,3.36,0,0,0,3.36-3.67" transform="translate(-26.31 -20.92)"/><path class="cls-5" d="M95.07,202.11a4,4,0,0,0,3-1.35l.88.79a4.9,4.9,0,0,1-3.93,1.8,5,5,0,0,1-.19-10c2.83,0,4.46,2.25,4.46,5.06a5,5,0,0,1,0,.5H91.7a3.34,3.34,0,0,0,3.37,3.18m2.78-4.32c-.16-1.74-1.16-3.22-3-3.22a3.31,3.31,0,0,0-3.11,3.22Z" transform="translate(-26.31 -20.92)"/><path class="cls-5" d="M105.45,193.57h1.42v2.5a4.08,4.08,0,0,1,3.9-2.66v1.53h-.11c-2.09,0-3.79,1.5-3.79,4.38v3.8h-1.42Z" transform="translate(-26.31 -20.92)"/><path class="cls-5" d="M115.41,200.36v0c0-2,1.66-3.12,4.08-3.12a10,10,0,0,1,2.92.4v-.29c0-1.7-1-2.59-2.83-2.59a6.73,6.73,0,0,0-2.9.68l-.42-1.16a7.79,7.79,0,0,1,3.47-.81,4.19,4.19,0,0,1,3.08,1,3.76,3.76,0,0,1,1,2.81v5.83h-1.4V201.7a4.21,4.21,0,0,1-3.44,1.63c-1.79,0-3.56-1-3.56-3m7-.75v-.88a9.64,9.64,0,0,0-2.79-.41c-1.78,0-2.79.78-2.79,1.92v0c0,1.2,1.11,1.9,2.4,1.9,1.75,0,3.18-1.05,3.18-2.57" transform="translate(-26.31 -20.92)"/><path class="cls-5" d="M130.89,200.59v-5.76h-1.33v-1.25h1.33v-2.89h1.42v2.89h3v1.25h-3v5.58a1.42,1.42,0,0,0,1.61,1.59,3,3,0,0,0,1.38-.34v1.22a3.56,3.56,0,0,1-1.72.41,2.43,2.43,0,0,1-2.69-2.7" transform="translate(-26.31 -20.92)"/><path class="cls-5" d="M141.64,203.13h1.42v-9.56h-1.42Zm-.09-11.64h1.62v-1.57h-1.62Z" transform="translate(-26.31 -20.92)"/><polygon class="cls-5" points="122.78 172.66 124.35 172.66 127.56 180.58 130.79 172.66 132.33 172.66 128.17 182.28 126.92 182.28 122.78 172.66"/><path class="cls-5" d="M163.35,200.36v0c0-2,1.66-3.12,4.08-3.12a10,10,0,0,1,2.92.4v-.29c0-1.7-1-2.59-2.83-2.59a6.73,6.73,0,0,0-2.9.68l-.42-1.16a7.79,7.79,0,0,1,3.47-.81,4.19,4.19,0,0,1,3.08,1,3.76,3.76,0,0,1,1,2.81v5.83h-1.4V201.7a4.21,4.21,0,0,1-3.44,1.63c-1.79,0-3.56-1-3.56-3m7-.75v-.88a9.64,9.64,0,0,0-2.79-.41c-1.78,0-2.79.78-2.79,1.92v0c0,1.2,1.11,1.9,2.4,1.9,1.75,0,3.18-1.05,3.18-2.57" transform="translate(-26.31 -20.92)"/><path class="cls-5" d="M187.07,198.38v0a4.69,4.69,0,0,1,4.56-5,4.32,4.32,0,0,1,3.66,2v-5.76h1.42v13.49h-1.42V201.2a4.29,4.29,0,0,1-3.66,2.13,4.66,4.66,0,0,1-4.56-5m8.27,0v0a3.54,3.54,0,0,0-3.45-3.67,3.36,3.36,0,0,0-3.36,3.67v0a3.44,3.44,0,0,0,3.36,3.69,3.56,3.56,0,0,0,3.45-3.69" transform="translate(-26.31 -20.92)"/><path class="cls-5" d="M203.67,203.13h1.43v-9.56h-1.43Zm-.09-11.64h1.63v-1.57h-1.63Z" transform="translate(-26.31 -20.92)"/><path class="cls-5" d="M220.47,201.9l.72-1a5.54,5.54,0,0,0,3.3,1.22c1.15,0,2-.59,2-1.52v0c0-1-1.13-1.33-2.38-1.68-1.5-.43-3.16-.95-3.16-2.7v0c0-1.64,1.37-2.73,3.25-2.73a6.61,6.61,0,0,1,3.44,1.05l-.65,1.07a5.42,5.42,0,0,0-2.83-.92c-1.12,0-1.84.59-1.84,1.38v0c0,.91,1.18,1.26,2.45,1.65,1.48.44,3.07,1,3.07,2.73v0c0,1.82-1.5,2.87-3.4,2.87a6.54,6.54,0,0,1-3.95-1.41" transform="translate(-26.31 -20.92)"/><path class="cls-5" d="M233.53,198.4v0a5,5,0,0,1,9.95,0v0a5,5,0,0,1-5,5,4.9,4.9,0,0,1-4.95-4.95m8.49,0v0a3.61,3.61,0,0,0-3.54-3.73,3.52,3.52,0,0,0-3.49,3.69v0a3.58,3.58,0,0,0,3.53,3.71,3.51,3.51,0,0,0,3.5-3.67" transform="translate(-26.31 -20.92)"/><rect class="cls-5" x="223.54" y="168.72" width="1.42" height="13.49"/><path class="cls-5" d="M258.36,203.13h1.42v-9.56h-1.42Zm-.09-11.64h1.62v-1.57h-1.62Z" transform="translate(-26.31 -20.92)"/><path class="cls-5" d="M266.19,198.38v0a4.69,4.69,0,0,1,4.56-5,4.31,4.31,0,0,1,3.66,2v-5.76h1.42v13.49h-1.42V201.2a4.29,4.29,0,0,1-3.66,2.13,4.66,4.66,0,0,1-4.56-5m8.27,0v0a3.54,3.54,0,0,0-3.45-3.67,3.36,3.36,0,0,0-3.36,3.67v0a3.44,3.44,0,0,0,3.36,3.69,3.56,3.56,0,0,0,3.45-3.69" transform="translate(-26.31 -20.92)"/><path class="cls-5" d="M282,200.36v0c0-2,1.66-3.12,4.08-3.12a10,10,0,0,1,2.92.4v-.29c0-1.7-1-2.59-2.83-2.59a6.77,6.77,0,0,0-2.9.68l-.42-1.16a7.82,7.82,0,0,1,3.47-.81,4.19,4.19,0,0,1,3.08,1,3.76,3.76,0,0,1,1,2.81v5.83H289V201.7a4.21,4.21,0,0,1-3.44,1.63c-1.79,0-3.56-1-3.56-3m7-.75v-.88a9.64,9.64,0,0,0-2.79-.41c-1.77,0-2.79.78-2.79,1.92v0c0,1.2,1.11,1.9,2.4,1.9,1.75,0,3.18-1.05,3.18-2.57" transform="translate(-26.31 -20.92)"/><path class="cls-5" d="M297,193.57h1.42v2.5a4.09,4.09,0,0,1,3.9-2.66v1.53h-.11c-2.09,0-3.79,1.5-3.79,4.38v3.8H297Z" transform="translate(-26.31 -20.92)"/><path class="cls-5" d="M308.29,203.13h1.42v-9.56h-1.42Zm-.09-11.64h1.62v-1.57H308.2Z" transform="translate(-26.31 -20.92)"/><path class="cls-5" d="M320.89,202.11a4,4,0,0,0,3-1.35l.89.79a4.92,4.92,0,0,1-3.94,1.8,5,5,0,0,1-.18-10c2.82,0,4.45,2.25,4.45,5.06a5,5,0,0,1,0,.5h-7.57a3.33,3.33,0,0,0,3.36,3.18m2.79-4.32c-.17-1.74-1.17-3.22-3.05-3.22a3.3,3.3,0,0,0-3.1,3.22Z" transform="translate(-26.31 -20.92)"/><path class="cls-5" d="M331.77,200.59v-5.76h-1.33v-1.25h1.33v-2.89h1.42v2.89h3v1.25h-3v5.58A1.42,1.42,0,0,0,334.8,202a3,3,0,0,0,1.39-.34v1.22a3.58,3.58,0,0,1-1.72.41,2.44,2.44,0,0,1-2.7-2.7" transform="translate(-26.31 -20.92)"/><path class="cls-5" d="M341.67,200.36v0c0-2,1.67-3.12,4.09-3.12a10.09,10.09,0,0,1,2.92.4v-.29c0-1.7-1-2.59-2.83-2.59a6.73,6.73,0,0,0-2.9.68l-.43-1.16a7.87,7.87,0,0,1,3.48-.81,4.21,4.21,0,0,1,3.08,1,3.76,3.76,0,0,1,1,2.81v5.83h-1.4V201.7a4.21,4.21,0,0,1-3.44,1.63c-1.79,0-3.57-1-3.57-3m7-.75v-.88a9.53,9.53,0,0,0-2.79-.41c-1.77,0-2.79.78-2.79,1.92v0c0,1.2,1.11,1.9,2.41,1.9,1.75,0,3.17-1.05,3.17-2.57m-5.17-9.47,1.48-.69,1.74,2.68h-1.11Z" transform="translate(-26.31 -20.92)"/><path class="cls-5" d="M365.15,201.9l.72-1a5.59,5.59,0,0,0,3.31,1.22c1.15,0,2-.59,2-1.52v0c0-1-1.13-1.33-2.38-1.68-1.5-.43-3.16-.95-3.16-2.7v0c0-1.64,1.36-2.73,3.25-2.73a6.55,6.55,0,0,1,3.43,1.05l-.64,1.07a5.45,5.45,0,0,0-2.83-.92c-1.13,0-1.85.59-1.85,1.38v0c0,.91,1.19,1.26,2.46,1.65,1.48.44,3.07,1,3.07,2.73v0c0,1.82-1.5,2.87-3.4,2.87a6.6,6.6,0,0,1-4-1.41" transform="translate(-26.31 -20.92)"/><path class="cls-5" d="M378.21,198.4v0a5,5,0,0,1,10,0v0a5,5,0,0,1-5,5,4.9,4.9,0,0,1-5-4.95m8.5,0v0a3.61,3.61,0,0,0-3.54-3.73,3.53,3.53,0,0,0-3.5,3.69v0a3.58,3.58,0,0,0,3.53,3.71,3.52,3.52,0,0,0,3.51-3.67" transform="translate(-26.31 -20.92)"/><path class="cls-5" d="M393.81,198.4v0a5,5,0,0,1,8.72-3.29l-.95,1a3.81,3.81,0,0,0-2.9-1.44,3.51,3.51,0,0,0-3.41,3.69v0a3.56,3.56,0,0,0,3.51,3.71,3.93,3.93,0,0,0,2.91-1.42l.91.85a4.94,4.94,0,0,1-8.79-3.1" transform="translate(-26.31 -20.92)"/><path class="cls-5" d="M408.74,203.13h1.42v-9.56h-1.42Zm-.1-11.64h1.63v-1.57h-1.63Z" transform="translate(-26.31 -20.92)"/><path class="cls-5" d="M416.4,200.36v0c0-2,1.66-3.12,4.08-3.12a10,10,0,0,1,2.92.4v-.29c0-1.7-1-2.59-2.82-2.59a6.78,6.78,0,0,0-2.91.68l-.42-1.16a7.82,7.82,0,0,1,3.47-.81,4.22,4.22,0,0,1,3.09,1,3.79,3.79,0,0,1,1,2.81v5.83H423.4V201.7a4.17,4.17,0,0,1-3.43,1.63c-1.79,0-3.57-1-3.57-3m7-.75v-.88a9.53,9.53,0,0,0-2.79-.41c-1.77,0-2.79.78-2.79,1.92v0c0,1.2,1.11,1.9,2.4,1.9,1.76,0,3.18-1.05,3.18-2.57" transform="translate(-26.31 -20.92)"/><rect class="cls-5" x="405.3" y="168.72" width="1.42" height="13.49"/><path class="cls-5" d="M444.21,202.11a3.93,3.93,0,0,0,3-1.35l.89.79a4.9,4.9,0,0,1-3.93,1.8,5,5,0,0,1-.19-10c2.83,0,4.45,2.25,4.45,5.06,0,.13,0,.28,0,.5h-7.58a3.34,3.34,0,0,0,3.37,3.18m2.78-4.32c-.16-1.74-1.16-3.22-3-3.22a3.31,3.31,0,0,0-3.11,3.22Z" transform="translate(-26.31 -20.92)"/><rect class="cls-5" x="437.09" y="175.91" width="5.14" height="1.5"/><path class="cls-5" d="M483.85,196.7v0a6.6,6.6,0,1,1,13.19,0v0a6.6,6.6,0,1,1-13.19,0m11.67,0v0a5.09,5.09,0,1,0-10.16,0v0a5.15,5.15,0,0,0,5.1,5.34,5.08,5.08,0,0,0,5.06-5.3" transform="translate(-26.31 -20.92)"/><path class="cls-5" d="M503.54,193.58H505v1.65a3.61,3.61,0,0,1,3.27-1.86,3.49,3.49,0,0,1,3.65,3.83v5.92h-1.42v-5.57c0-1.78-1-2.89-2.64-2.89a2.81,2.81,0,0,0-2.86,3v5.46h-1.43Z" transform="translate(-26.31 -20.92)"/><rect class="cls-5" x="492.4" y="168.72" width="1.42" height="13.49"/><path class="cls-5" d="M527,199.5v-5.93h1.42v5.58c0,1.78,1,2.89,2.64,2.89a2.83,2.83,0,0,0,2.87-3v-5.47h1.4v9.56h-1.4v-1.67a3.64,3.64,0,0,1-3.27,1.87A3.49,3.49,0,0,1,527,199.5" transform="translate(-26.31 -20.92)"/><path class="cls-5" d="M541.34,201.9l.72-1a5.57,5.57,0,0,0,3.31,1.22c1.14,0,2-.59,2-1.52v0c0-1-1.13-1.33-2.39-1.68-1.49-.43-3.16-.95-3.16-2.7v0c0-1.64,1.37-2.73,3.25-2.73a6.58,6.58,0,0,1,3.44,1.05l-.65,1.07a5.39,5.39,0,0,0-2.82-.92c-1.13,0-1.85.59-1.85,1.38v0c0,.91,1.18,1.26,2.46,1.65,1.47.44,3.06,1,3.06,2.73v0c0,1.82-1.49,2.87-3.39,2.87a6.57,6.57,0,0,1-4-1.41" transform="translate(-26.31 -20.92)"/></svg>